<?xml version="1.0" encoding="UTF-8" standalone="no"?>
<!-- Created with Inkscape (http://www.inkscape.org/) -->

<svg
   width="57.530994"
   height="76.858727"
   viewBox="0 0 57.530994 76.858726"
   version="1.1"
   id="svg1"
   xmlns="http://www.w3.org/2000/svg"
   xmlns:svg="http://www.w3.org/2000/svg">
  <defs
     id="defs1" />
  <g
     id="layer1"
     transform="translate(-5.5824701,-53.094026)">
    <g
       id="text1"
       style="font-weight:bold;font-size:38.1px;line-height:0.8;font-family:'IBM Plex Sans';-inkscape-font-specification:'IBM Plex Sans Bold';letter-spacing:-2.2569px;stroke-width:3.49999;stroke-linecap:round;stroke-linejoin:round"
       aria-label="Joon&#10;Suh"
       transform="rotate(90,34.347968,91.523392)">
      <path
         style="stroke-width:3.5"
         d="m 13.482701,62.757893 v 18.8976 q 0,1.828799 -0.6096,3.352799 -0.5715,1.4859 -1.7145,2.5527 -1.142999,1.0287 -2.7812994,1.6383 -1.6001999,0.5715 -3.6575999,0.5715 -1.9811999,0 -3.5051998,-0.5334 -1.48589997,-0.5334 -2.5907999,-1.524 -1.0668,-0.9906 -1.7526,-2.3622 -0.6857999,-1.3716 -0.9524999,-3.048 l 5.4101998,-1.066799 q 0.6476999,3.467099 3.3146998,3.467099 1.2573,0 2.1336,-0.8001 0.9143999,-0.8001 0.9143999,-2.514599 v -13.9827 h -8.07719966 v -4.6482 z M 24.7513,89.808892 q -2.2098,0 -3.9624,-0.7239 -1.7145,-0.7239 -2.9337,-2.0955 -1.1811,-1.3716 -1.828799,-3.3147 -0.6477,-1.943099 -0.6477,-4.343399 0,-2.4003 0.6477,-4.3434 0.647699,-1.9431 1.828799,-3.2766 1.2192,-1.3716 2.9337,-2.0955 1.7526,-0.7239 3.9624,-0.7239 2.2098,0 3.9243,0.7239 1.7526,0.7239 2.9337,2.0955 1.2192,1.3335 1.8669,3.2766 0.6477,1.9431 0.6477,4.3434 0,2.4003 -0.6477,4.343399 -0.6477,1.9431 -1.8669,3.3147 -1.1811,1.3716 -2.9337,2.0955 -1.7145,0.7239 -3.9243,0.7239 z m 0,-4.4577 q 1.6764,0 2.5908,-1.0287 0.9144,-1.0287 0.9144,-2.933699 v -4.0767 q 0,-1.905 -0.9144,-2.9337 -0.9144,-1.0287 -2.5908,-1.0287 -1.6764,0 -2.5908,1.0287 -0.9144,1.0287 -0.9144,2.9337 v 4.0767 q 0,1.904999 0.9144,2.933699 0.9144,1.0287 2.5908,1.0287 z m 19.231466,4.4577 q -2.209799,0 -3.962399,-0.7239 -1.7145,-0.7239 -2.9337,-2.0955 -1.1811,-1.3716 -1.8288,-3.3147 -0.6477,-1.943099 -0.6477,-4.343399 0,-2.4003 0.6477,-4.3434 0.6477,-1.9431 1.8288,-3.2766 1.2192,-1.3716 2.9337,-2.0955 1.7526,-0.7239 3.962399,-0.7239 2.2098,0 3.9243,0.7239 1.7526,0.7239 2.9337,2.0955 1.2192,1.3335 1.8669,3.2766 0.6477,1.9431 0.6477,4.3434 0,2.4003 -0.6477,4.343399 -0.6477,1.9431 -1.8669,3.3147 -1.1811,1.3716 -2.9337,2.0955 -1.7145,0.7239 -3.9243,0.7239 z m 0,-4.4577 q 1.6764,0 2.5908,-1.0287 0.9144,-1.0287 0.9144,-2.933699 v -4.0767 q 0,-1.905 -0.9144,-2.9337 -0.9144,-1.0287 -2.5908,-1.0287 -1.676399,0 -2.590799,1.0287 -0.9144,1.0287 -0.9144,2.9337 v 4.0767 q 0,1.904999 0.9144,2.933699 0.9144,1.0287 2.590799,1.0287 z m 11.116169,4.0005 V 69.349193 h 5.6388 v 3.3909 h 0.2286 q 0.5334,-1.5621 1.8669,-2.7051 1.3335,-1.143 3.6957,-1.143 3.086099,0 4.648199,2.0574 1.6002,2.0574 1.6002,5.8674 v 12.534899 h -5.6388 V 77.273993 q 0,-1.9431 -0.609599,-2.8575 -0.6096,-0.9525 -2.1717,-0.9525 -0.6858,0 -1.3335,0.1905 -0.6477,0.1524 -1.1811,0.5334 -0.4953,0.381 -0.8001,0.9525 -0.3048,0.5334 -0.3048,1.2573 v 12.953999 z"
         id="path2" />
      <path
         style="stroke-width:3.5"
         d="m 6.5104017,120.28889 q -3.5051999,0 -5.9435998,-1.1811 -2.4383999,-1.2192 -4.1528998,-3.1242 l 3.80999981,-3.8481 q 2.70509989,3.048 6.66749969,3.048 2.1336,0 3.1623004,-0.8763 1.028699,-0.8763 1.028699,-2.3241 0,-1.1049 -0.609599,-1.8288 -0.6096005,-0.762 -2.4765004,-1.0287 l -2.6288999,-0.3429 q -4.2290998,-0.5334 -6.21029974,-2.5527 -1.94309996,-2.0193 -1.94309996,-5.3721 0,-1.790698 0.6858,-3.276598 0.6858,-1.4859 1.94309993,-2.5527 1.29539997,-1.0668 3.12419987,-1.6383 1.8668999,-0.609599 4.2290998,-0.609599 3.0099004,0 5.2958994,0.952499 2.286,0.9525 3.9243,2.7813 l -3.8481,3.886198 q -0.9525,-1.104898 -2.324099,-1.790698 -1.3335004,-0.7239 -3.3909004,-0.7239 -1.9430999,0 -2.8955998,0.6858 -0.9525,0.6858 -0.9525,1.904998 0,1.3716 0.7239,1.9812 0.7619999,0.6096 2.4383999,0.8763 l 2.6288999,0.4191 q 4.1147994,0.6477 6.0959994,2.5527 1.9812,1.8669 1.9812,5.334 0,1.905 -0.6858,3.5052 -0.6858,1.6002 -2.0193,2.7432 -1.2954,1.143 -3.2385,1.7907 -1.9430994,0.6096 -4.4195993,0.6096 z m 24.4131193,-3.81 h -0.1905 q -0.2667,0.762 -0.7239,1.4478 -0.4191,0.6858 -1.1049,1.2192 -0.6858,0.5334 -1.6383,0.8382 -0.9144,0.3048 -2.1336,0.3048 -3.0861,0 -4.6863,-2.0193 -1.5621,-2.0574 -1.5621,-5.8674 V 99.829192 h 5.6388 v 12.077698 q 0,1.8288 0.6477,2.8194 0.6477,0.9906 2.2098,0.9906 0.6477,0 1.2954,-0.1905 0.6477,-0.1905 1.143,-0.5334 0.4953,-0.381 0.8001,-0.9144 0.3048,-0.5334 0.3048,-1.2573 V 99.829192 h 5.638799 v 20.002498 h -5.638799 z m 8.639724,-24.841197 h 5.638799 v 11.582397 h 0.2286 q 0.5334,-1.5621 1.8669,-2.7051 1.3335,-1.142998 3.6957,-1.142998 3.0861,0 4.6482,2.057398 1.6002,2.0574 1.6002,5.8674 v 12.5349 h -5.6388 v -12.0777 q 0,-1.9431 -0.6096,-2.8575 -0.6096,-0.9525 -2.1717,-0.9525 -0.6858,0 -1.3335,0.1905 -0.6477,0.1524 -1.1811,0.5334 -0.4953,0.381 -0.8001,0.9525 -0.3048,0.5334 -0.3048,1.2573 v 12.954 h -5.638799 z"
         id="path3" />
    </g>
  </g>
</svg>
